P1
# EidP Productions 2017 / 18
100 150
0111011010101010010000000000000000000000100000000000000000000000000000000000000000000000000000000000
1101111111111110110000000000000000000001100000000000000000000000000000000000000000000000000000000000
1111000000000011110000000000000000000011100000000000000000000000000000000000000000000000000000000001
0001000000000110010000000000000000000110100000000000000000000000000000000000000000000000000000000011
0011000000001110110000000000000000001111100000000000000000000000000000000000000000000000000000000111
0111000000011011110000000000000000011000100000000000000000000000000000000000000000000000000000001101
1101000000111110010000000000000000111001100000000000000000000000000000000000000000000000000000011111
0111000001100010110000000000000001101011100000000000000000000000000000000000000000000000000000110000
1101000011100111110000000000000011111110100000000000000000000000000000000000000000000000000001110000
1111000110101100010000000000000110000011100000000000000000000000000000000000000000000000000011010001
0001001111111100110000000000001110000110100000000000000000000000000000000000000000000000000111110011
0011011000000101110000000000011010001111100000000000000000000000000000000000000000000000001100010111
0111111000001111010000000000111110011000100000000000000000000000000000000000000000000000011100111101
1100001000011001110000000001100010111001100000000000000000000000000000000000000000000000110101100111
0100011000111011010000000011100111101011100000000000000000000000000000000000000000000001111111101100
1100111001101111110000000110101100111110100000000000000000000000000000000000000000000011000000111100
1101101011111000010000001111111101100011100000000000000000000000000000000000000000000111000001100101
0111111110001000110000011000000111100110100000000000000000000000000000000000000000001101000011101111
1100000010011001110000111000001100101111100000000000000000000000000000000000000000011111000110111001
0100000110111011010001101000011101111000100000000000000000000000000000000000000000110001001111101011
1100001111101111110011111000110111001001100000000000000000000000000000000000000001110011011000111111
0100011000111000010110001001111101011011100000000000000000000000000000000000000011010111111001100000
1100111001101000111110011011000111111110100000000000000000000000000000000000000111111100001011100000
1101101011111001100010111111001100000011100000000000000000000000000000000000001100000100011110100001
0111111110001011100111100001011100000110100000000000000000000000000000000000011100001100110011100011
1100000010011110101100100011110100001111100000000000000000000000000000000000110100011101110110100111
0100000110110011111101100110011100011000100000000000000000000000000000000001111100110111011111101100
1100001111110110000111101110110100111001100000000000000000000000000000000011000101111101110000111100
1100011000011110001100111011111101101011100000000000000000000000000000000111001111000111010001100101
0100111000110010011101101110000111111110100000000000000000000000000000001101011001001101110011101111
1101101001110110110111111010001100000011100000000000000000000000000000011111111011011111010110111001
0111111011011111111100001110011100000110100000000000000000000000000000110000001111110001111111101011
1100001111110000000100011010110100001111100000000000000000000000000001110000011000010011000000111111
0100011000010000001100111111111100011000100000000000000000000000000011010000111000110111000001100000
1100111000110000011101100000000100111001100000000000000000000000000111110001101001111101000011100000
1101101001110000110111100000001101101011100000000000000000000000001100010011111011000111000110100001
0111111011010001111100100000011111111110100000000000000000000000011100110110001111001101001111100011
1100001111110011000101100000110000000011100000000000000000000000110101111110011001011111011000100111
0100011000010111001111100001110000000110100000000000000000000001111111000010111011110001111001101100
1100111000111101011000100011010000001111100000000000000000000011000001000111101110010011001011111100
1101101001100111111001100111110000011000100000000000000000000111000011001100111010110111011110000101
0111111011101100001011101100010000111001100000000000000000001101000111011101101111111101110010001111
1100001110111100011110111100110001101011100000000000000000011111001101110111111000000111010110011001
0100011011100100110011100101110011111110100000000000000000110001011111011100001000001101111110111011
1100111110101101110110101111010110000011100000000000000001110011110001110100011000011111000011101111
0101100011111111011111111001111110000110100000000000000011010110010011011100111000110001000110111000
1111100110000001110000001011000010001111100000000000000111111110110111110101101001110011001111101000
1000101110000011010000011111000110011000100000000000001100000011111100011111111011010111011000111001
1001111010000111110000110001001110111001100000000000011100000110000100110000001111111101111001101011
1011001110001100010001110011011011101011100000000000110100001110001101110000011000000111001011111110
1111011010011100110011010111111110111110100000000001111100011010011111010000111000001101011110000011
0001111110110101110111111100000011100011100000000011000100111110110001110001101000011111110010000110
0011000011111111011100000100000110100110100000000111001101100011110011010011111000110000010110001110
0111000110000001110100001100001111101111100000001101011111100110010111110110001001110000111110011010
1101001110000011011100011100011000111000100000011111110000101110111100011110011011010001100010111110
1111011010000111110100110100111001101001100000110000010001111011100100110010111111110011100111100011
0001111110001100011101111101101011111011100001110000110011001110101101110111100000010110101100100110
0011000010011100110111000111111110001110100011010001110111011011111111011100100000111111111101101110
0111000110110101111101001100000010011011100111110011011101111110000001110101100001100000000111111010
1101001111111111000111011100000110111110101100010111110111000010000011011111100011100000001100001110
1111011000000001001101110100001111100011111100111100011101000110000111110000100110100000011100011011
0001111000000011011111011100011000100110000101100100110111001110001100010001101111100000110100111110
0011001000000111110001110100111001101110001111101101111101011010011100110011111000100001111101100010
0111011000001100010011011101101011111010011000111111000111111110110101110110001001100011000111100110
1101111000011100110111110111111110001110111001100001001100000011111111011110011011100111001100101110
1111001000110101111100011100000010011011101011100011011100000110000001110010111110101101011101111011
0001011001111111000100110100000110111110111110100111110100001110000011010111100011111111110111001110
0011111011000001001101111100001111100011100011101100011100011010000111111100100110000000011101011010
0110001111000011011111000100011000100110100110111100110100111110001100000101101110000000110111111110
1110011001000111110001001100111001101111101111100101111101100010011100001111111010000001111100000010
1010111011001100010011011101101011111000111000101111000111100110110100011000001110000011000100000111
1111101111011100110111110111111110001001101001111001001100101111111100111000011010000111001100001100
1000111001110101111100011100000010011011111011001011011101111000000101101000111110001101011100011101
1001101011011111000100110100000110111110001111011111110111001000001111111001100010011111110100110111
1011111111110001001101111100001111100010011001110000011101011000011000001011100110110000011101111100
1110000000010011011111000100011000100110111011010000110111111000111000011110101111110000110111000101
0010000000110111110001001100111001101111101111110001111100001001101000110011111000010001111101001111
0110000001111100010011011101101011111000111000010011000100011011111001110110001000110011000111011001
1110000011000100110111110111111110001001101000110111001100111110001011011110011001110111001101111011
0010000111001101111100011100000010011011111001111101011101100010011111110010111011011101011111001110
0110001101011111000100110100000110111110001011000111110111100110110000010111101111110111110001011010
1110011111110001001101111100001111100010011111001100011100101111110000111100111000011100010011111110
1010110000010011011111000100011000100110110001011100110101111000010001100101101000110100110110000011
1111110000110111110001001100111001101111110011110101111111001000110011101111111001111101111110000110
1000010001111100010011011101101011111000010110011111000001011001110110111000001011000111000010001111
1000110011000100110111110111111110001000111110110001000011111011011111101000011111001101000110011000
1001110111001101111100011100000010011001100011110011000110001111110000111000110001011111001110111001
1011011101011111000100110100000110111011100110010111001110011000010001101001110011110001011011101011
1111110111110001001101111100001111101110101110111101011010111000110011111011010110010011111110111110
1000011100010011011111000100011000111011111011100111111111101001110110001111111110110110000011100011
1000110100110111110001001100111001101110001110101100000000111011011110011000000011111110000110100110
1001111101111100010011011101101011111010011011111100000001101111110010111000000110000010001111101111
1011000111000100110111110111111110001110111110000100000011111000010111101000001110000110011000111000
1111001101001101111100011100000010011011100010001100000110001000111100111000011010001110111001101001
0001011111011111000100110100000110111110100110011100001110011001100101101000111110011011101011111011
0011110001110001001101111100001111100011101110110100011010111011101111111001100010111110111110001111
0110010011010011011111000100011000100110111011111100111111101110111000001011100111100011100010011001
1110110111110111110001001100111001101111101110000101100000111011101000011110101100100110100110111011
0011111100011100010011011101101011111000111010001111100001101110111000110011111101101111101111101110
0110000100110100110111110111111110001001101110011000100011111011101001110110000111111000111000111010
1110001101111101111100011100000010011011111010111001100110001110111011011110001100001001101001101110
1010011111000111000100110100000110111110001111101011101110011011101111110010011100011011111011111011
1110110001001101001101111100001111100010011000111110111010111110111000010110110100111110001110001110
1011110011011111011111000100011000100110111001100011101111100011101000111111111101100010011010011011
1110010111110001110001001100111001101111101011100110111000100110111001100000000111100110111110111110
1010111100010011010011011101101011111000111110101111101001101111101011100000001100101111100011100011
1111100100110111110111110111111110001001100011111000111011111000111110100000011101111000100110100110
1000101101111100011100011100000010011011100110001001101110001001100011100000110111001001101111101111
1001111111000100110100110100000110111110101110011011111010011011100110100001111101011011111000111000
1011000001001101111101111100001111100011111010111110001110111110101111100011000111111110001001101001
1111000011011111000111000100011000100110001111100010011011100011111000100111001100000010011011111011
0001000111110001001101001100111001101110011000100110111110100110001001101101011100000110111110001110
0011001100010011011111011101101011111010111001101111100011101110011011111111110100001111100010011010
0111011100110111110001110111111110001111101011111000100110111010111110000000011100011000100110111110
1101110101111100010011011100000010011000111110001001101111101111100010000000110100111001101111100010
1111011111000100110111110100000110111001100010011011111000111000100110000001111101101011111000100111
0001110001001101111100011100001111101011100110111110001001101001101110000011000111111110001001101100
0011010011011111000100110100011000111110101111100010011011111011111010000111001100000010011011111100
0111110111110001001101111100111001100011111000100110111110001110001110001101011100000110111110000100
1100011100010011011111000101101011100110001001101111100010011010011010011111110100001111100010001100
1100110100110111110001001111111110101110011011111000100110111110111110110000011100011000100110011101
0101111101111100010011011000000011111010111110001001101111100011100011110000110100111001101110110111
1111000111000100110111111000000110001111100010011011111000100110100110010001111101101011111011111101
0001001101001101111100001000001110011000100110111110001001101111101110110011000111111110001110000111
0011011111011111000100011000011010111001101111100010011011111000111011110111001100000010011010001101
0111110001110001001100111000111111101011111000100110111110001001101110011101011100000110111110011111
1100010011010011011101101001100000111110001001101111100010011011111010110111110100001111100010110001
0100110111110111110111111011100001100010011011111000100110111110001111111100011100011000100111110011
1101111100011100011100001110100011100110111110001001101111100010011000000100110100111001101100010111
0111000100110100110100011011100110101111100010011011111000100110111000001101111101101011111100111100
1101001101111101111100111110101111111000100110111110001001101111101000011111000111111110000101100100
1111011111000111000101100011111000001001101111100010011011111000111000110001001100000010001111101101
0001110001001101001111100110001000011011111000100110111110001001101001110011011100000110011000111111
0011010011011111011000101110011000111110001001101111100010011011111011010111110100001110111001100001
0111110111110001111001111010111001100010011011111000100110111110001111111100011100011011101011100011
1100011100010011001011001111101011100110111110001001101111100010011000000100110100111110111110100111
0100110100110111011111011000111110101111100010011011111000100110111000001101111101100011100011101100
1101111101111101110001111001100011111000100110111110001001101111101000011111000111100110100110111100
1111000111000111010011001011100110001001101111100010011011111000111000110001001100101111101111100101
0001001101001101110111011110101110011011111000100110111110001001101001110011011101111000111000101111
0011011111011111011101110011111010111110001001101111100010011011111011010111110111001001101001111001
0111110001110001110111010110001111100010011011111000100110111110001111111100011101011011111011001011
1100010011010011011101111110011000100110111110001001101111100010011000000100110111111110001111011111
0100110111110111110111000010111001101111100010011011111000100110111000001101111100000010011001110000
1101111100011100011101000111101011111000100110111110001001101111101000011111000100000110111011010000
1111000100110100110111001100111110001001101111100010011011111000111000110001001100001111101111110001
0001001101111101111101011101100010011011111000100110111110001001101001110011011100011000111000010011
0011011111000111000111110111100110111110001001101111100010011011111011010111110100111001101000110111
0111110001001101001100011100101111100010011011111000100110111110001111111100011101101011111001111101
1100010011011111011100110101111000100110111110001001101111100010011000000100110111111110001011000111
